<?xml version="1.0" encoding="UTF-8" standalone="no"?>
<!DOCTYPE svg PUBLIC "-//W3C//DTD SVG 1.1//EN"
 "http://www.w3.org/Graphics/SVG/1.1/DTD/svg11.dtd">
<!-- Generated by graphviz version 9.0.0 (20230911.1827)
 -->
<!-- Pages: 1 -->
<svg width="303pt" height="255pt"
 viewBox="0.00 0.00 302.92 255.13" xmlns="http://www.w3.org/2000/svg" xmlns:xlink="http://www.w3.org/1999/xlink">
<g id="graph0" class="graph" transform="scale(1 1) rotate(0) translate(4 251.13)">
<polygon fill="white" stroke="none" points="-4,4 -4,-251.13 298.92,-251.13 298.92,4 -4,4"/>
<!-- jqt -->
<g id="node1" class="node">
<title>jqt</title>
<ellipse fill="none" stroke="black" cx="59.84" cy="-128.27" rx="27" ry="18"/>
<text text-anchor="middle" x="59.84" y="-122.85" font-family="Times New Roman,serif" font-size="14.00">jqt</text>
</g>
<!-- rhn -->
<g id="node2" class="node">
<title>rhn</title>
<ellipse fill="none" stroke="black" cx="27" cy="-166.93" rx="27" ry="18"/>
<text text-anchor="middle" x="27" y="-161.5" font-family="Times New Roman,serif" font-size="14.00">rhn</text>
</g>
<!-- jqt&#45;&#45;rhn -->
<g id="edge1" class="edge">
<title>jqt&#45;&#45;rhn</title>
<path fill="none" stroke="black" d="M46.48,-144C44.49,-146.34 42.44,-148.75 40.45,-151.09"/>
</g>
<!-- xhk -->
<g id="node3" class="node">
<title>xhk</title>
<ellipse fill="none" stroke="black" cx="50.71" cy="-205.61" rx="27" ry="18"/>
<text text-anchor="middle" x="50.71" y="-200.19" font-family="Times New Roman,serif" font-size="14.00">xhk</text>
</g>
<!-- jqt&#45;&#45;xhk -->
<g id="edge2" class="edge">
<title>jqt&#45;&#45;xhk</title>
<path fill="none" stroke="black" d="M57.68,-146.6C56.22,-158.93 54.31,-175.11 52.86,-187.41"/>
</g>
<!-- nvd -->
<g id="node4" class="node">
<title>nvd</title>
<ellipse fill="none" stroke="black" cx="145.59" cy="-101.7" rx="27" ry="18"/>
<text text-anchor="middle" x="145.59" y="-96.27" font-family="Times New Roman,serif" font-size="14.00">nvd</text>
</g>
<!-- jqt&#45;&#45;nvd -->
<g id="edge3" class="edge">
<title>jqt&#45;&#45;nvd</title>
<path fill="none" stroke="black" d="M84.64,-120.59C96.02,-117.06 109.47,-112.89 120.84,-109.37"/>
</g>
<!-- rhn&#45;&#45;xhk -->
<g id="edge12" class="edge">
<title>rhn&#45;&#45;xhk</title>
<path fill="none" stroke="black" d="M37.47,-184.01C38.46,-185.63 39.46,-187.27 40.45,-188.88"/>
</g>
<!-- hfx -->
<g id="node9" class="node">
<title>hfx</title>
<ellipse fill="none" stroke="black" cx="128.97" cy="-206.14" rx="27" ry="18"/>
<text text-anchor="middle" x="128.97" y="-200.71" font-family="Times New Roman,serif" font-size="14.00">hfx</text>
</g>
<!-- rhn&#45;&#45;hfx -->
<g id="edge13" class="edge">
<title>rhn&#45;&#45;hfx</title>
<path fill="none" stroke="black" d="M50.65,-176.02C67.13,-182.36 89.01,-190.77 105.45,-197.09"/>
</g>
<!-- bvb -->
<g id="node13" class="node">
<title>bvb</title>
<ellipse fill="none" stroke="black" cx="93.05" cy="-152.45" rx="27" ry="18"/>
<text text-anchor="middle" x="93.05" y="-147.03" font-family="Times New Roman,serif" font-size="14.00">bvb</text>
</g>
<!-- rhn&#45;&#45;bvb -->
<g id="edge14" class="edge">
<title>rhn&#45;&#45;bvb</title>
<path fill="none" stroke="black" d="M53.11,-161.21C57.72,-160.2 62.53,-159.14 67.14,-158.13"/>
</g>
<!-- xhk&#45;&#45;hfx -->
<g id="edge7" class="edge">
<title>xhk&#45;&#45;hfx</title>
<path fill="none" stroke="black" d="M78.08,-205.8C85.66,-205.85 93.89,-205.9 101.48,-205.95"/>
</g>
<!-- lhk -->
<g id="node12" class="node">
<title>lhk</title>
<ellipse fill="none" stroke="black" cx="196.62" cy="-39.03" rx="27" ry="18"/>
<text text-anchor="middle" x="196.62" y="-33.6" font-family="Times New Roman,serif" font-size="14.00">lhk</text>
</g>
<!-- nvd&#45;&#45;lhk -->
<g id="edge25" class="edge">
<title>nvd&#45;&#45;lhk</title>
<path fill="none" stroke="black" d="M158.73,-85.56C166.41,-76.13 176.06,-64.28 183.7,-54.9"/>
</g>
<!-- rsh -->
<g id="node5" class="node">
<title>rsh</title>
<ellipse fill="none" stroke="black" cx="267.92" cy="-134.76" rx="27" ry="18"/>
<text text-anchor="middle" x="267.92" y="-129.34" font-family="Times New Roman,serif" font-size="14.00">rsh</text>
</g>
<!-- frs -->
<g id="node6" class="node">
<title>frs</title>
<ellipse fill="none" stroke="black" cx="263.81" cy="-34.03" rx="27" ry="18"/>
<text text-anchor="middle" x="263.81" y="-28.61" font-family="Times New Roman,serif" font-size="14.00">frs</text>
</g>
<!-- rsh&#45;&#45;frs -->
<g id="edge4" class="edge">
<title>rsh&#45;&#45;frs</title>
<path fill="none" stroke="black" d="M267.17,-116.29C266.43,-98.11 265.3,-70.53 264.56,-52.39"/>
</g>
<!-- pzl -->
<g id="node7" class="node">
<title>pzl</title>
<ellipse fill="none" stroke="black" cx="200.44" cy="-165.66" rx="27" ry="18"/>
<text text-anchor="middle" x="200.44" y="-160.24" font-family="Times New Roman,serif" font-size="14.00">pzl</text>
</g>
<!-- rsh&#45;&#45;pzl -->
<g id="edge5" class="edge">
<title>rsh&#45;&#45;pzl</title>
<path fill="none" stroke="black" d="M245.45,-145.05C238.24,-148.35 230.26,-152.01 223.04,-155.31"/>
</g>
<!-- lsr -->
<g id="node8" class="node">
<title>lsr</title>
<ellipse fill="none" stroke="black" cx="258.28" cy="-95.57" rx="27" ry="18"/>
<text text-anchor="middle" x="258.28" y="-90.14" font-family="Times New Roman,serif" font-size="14.00">lsr</text>
</g>
<!-- rsh&#45;&#45;lsr -->
<g id="edge6" class="edge">
<title>rsh&#45;&#45;lsr</title>
<path fill="none" stroke="black" d="M263.44,-116.54C263.21,-115.58 262.97,-114.62 262.73,-113.66"/>
</g>
<!-- frs&#45;&#45;lsr -->
<g id="edge31" class="edge">
<title>frs&#45;&#45;lsr</title>
<path fill="none" stroke="black" d="M262.15,-52.5C261.45,-60.28 260.64,-69.33 259.94,-77.12"/>
</g>
<!-- qnr -->
<g id="node11" class="node">
<title>qnr</title>
<ellipse fill="none" stroke="black" cx="168.22" cy="-18" rx="27" ry="18"/>
<text text-anchor="middle" x="168.22" y="-12.57" font-family="Times New Roman,serif" font-size="14.00">qnr</text>
</g>
<!-- frs&#45;&#45;qnr -->
<g id="edge32" class="edge">
<title>frs&#45;&#45;qnr</title>
<path fill="none" stroke="black" d="M237.18,-29.57C223.92,-27.34 207.94,-24.66 194.71,-22.44"/>
</g>
<!-- frs&#45;&#45;lhk -->
<g id="edge33" class="edge">
<title>frs&#45;&#45;lhk</title>
<path fill="none" stroke="black" d="M236.48,-36.06C232.26,-36.38 227.91,-36.7 223.7,-37.01"/>
</g>
<!-- pzl&#45;&#45;nvd -->
<g id="edge17" class="edge">
<title>pzl&#45;&#45;nvd</title>
<path fill="none" stroke="black" d="M186.88,-149.85C178.38,-139.94 167.46,-127.21 158.99,-117.33"/>
</g>
<!-- pzl&#45;&#45;lsr -->
<g id="edge18" class="edge">
<title>pzl&#45;&#45;lsr</title>
<path fill="none" stroke="black" d="M213.56,-149.76C223.03,-138.28 235.75,-122.87 245.21,-111.41"/>
</g>
<!-- pzl&#45;&#45;hfx -->
<g id="edge19" class="edge">
<title>pzl&#45;&#45;hfx</title>
<path fill="none" stroke="black" d="M179.77,-177.37C170.37,-182.69 159.27,-188.98 149.85,-194.32"/>
</g>
<!-- lsr&#45;&#45;lhk -->
<g id="edge26" class="edge">
<title>lsr&#45;&#45;lhk</title>
<path fill="none" stroke="black" d="M242.08,-80.71C232.94,-72.34 221.58,-61.92 212.5,-53.59"/>
</g>
<!-- cmg -->
<g id="node10" class="node">
<title>cmg</title>
<ellipse fill="none" stroke="black" cx="123.24" cy="-63.87" rx="27" ry="18"/>
<text text-anchor="middle" x="123.24" y="-58.44" font-family="Times New Roman,serif" font-size="14.00">cmg</text>
</g>
<!-- cmg&#45;&#45;nvd -->
<g id="edge8" class="edge">
<title>cmg&#45;&#45;nvd</title>
<path fill="none" stroke="black" d="M133.37,-81.01C134.11,-82.26 134.85,-83.52 135.59,-84.77"/>
</g>
<!-- cmg&#45;&#45;qnr -->
<g id="edge9" class="edge">
<title>cmg&#45;&#45;qnr</title>
<path fill="none" stroke="black" d="M138.22,-48.59C143.03,-43.69 148.35,-38.27 153.16,-33.36"/>
</g>
<!-- cmg&#45;&#45;lhk -->
<g id="edge10" class="edge">
<title>cmg&#45;&#45;lhk</title>
<path fill="none" stroke="black" d="M147.68,-55.6C155.6,-52.91 164.38,-49.94 172.29,-47.26"/>
</g>
<!-- cmg&#45;&#45;bvb -->
<g id="edge11" class="edge">
<title>cmg&#45;&#45;bvb</title>
<path fill="none" stroke="black" d="M117.13,-81.79C111.9,-97.16 104.39,-119.19 99.15,-134.55"/>
</g>
<!-- qnr&#45;&#45;nvd -->
<g id="edge20" class="edge">
<title>qnr&#45;&#45;nvd</title>
<path fill="none" stroke="black" d="M163.31,-36.16C159.52,-50.2 154.28,-69.54 150.49,-83.57"/>
</g>
<!-- bvb&#45;&#45;xhk -->
<g id="edge15" class="edge">
<title>bvb&#45;&#45;xhk</title>
<path fill="none" stroke="black" d="M80.12,-168.69C74.86,-175.29 68.81,-182.89 63.56,-189.47"/>
</g>
<!-- bvb&#45;&#45;hfx -->
<g id="edge16" class="edge">
<title>bvb&#45;&#45;hfx</title>
<path fill="none" stroke="black" d="M104.22,-169.14C108.5,-175.55 113.39,-182.85 117.69,-189.27"/>
</g>
<!-- ntq -->
<g id="node14" class="node">
<title>ntq</title>
<ellipse fill="none" stroke="black" cx="86.87" cy="-229.13" rx="27" ry="18"/>
<text text-anchor="middle" x="86.87" y="-223.71" font-family="Times New Roman,serif" font-size="14.00">ntq</text>
</g>
<!-- ntq&#45;&#45;jqt -->
<g id="edge21" class="edge">
<title>ntq&#45;&#45;jqt</title>
<path fill="none" stroke="black" d="M82.04,-211.1C77.12,-192.74 69.54,-164.45 64.63,-146.15"/>
</g>
<!-- ntq&#45;&#45;xhk -->
<g id="edge22" class="edge">
<title>ntq&#45;&#45;xhk</title>
<path fill="none" stroke="black" d="M67.52,-216.55C67.38,-216.46 67.25,-216.37 67.12,-216.28"/>
</g>
<!-- ntq&#45;&#45;hfx -->
<g id="edge23" class="edge">
<title>ntq&#45;&#45;hfx</title>
<path fill="none" stroke="black" d="M107.92,-217.64C108.09,-217.55 108.25,-217.46 108.42,-217.37"/>
</g>
<!-- ntq&#45;&#45;bvb -->
<g id="edge24" class="edge">
<title>ntq&#45;&#45;bvb</title>
<path fill="none" stroke="black" d="M88.34,-210.96C89.31,-198.83 90.6,-182.92 91.58,-170.76"/>
</g>
<!-- rzs -->
<g id="node15" class="node">
<title>rzs</title>
<ellipse fill="none" stroke="black" cx="208.77" cy="-79.44" rx="27" ry="18"/>
<text text-anchor="middle" x="208.77" y="-74.01" font-family="Times New Roman,serif" font-size="14.00">rzs</text>
</g>
<!-- rzs&#45;&#45;rsh -->
<g id="edge27" class="edge">
<title>rzs&#45;&#45;rsh</title>
<path fill="none" stroke="black" d="M224.62,-94.26C233.11,-102.2 243.53,-111.95 252.03,-119.9"/>
</g>
<!-- rzs&#45;&#45;lsr -->
<g id="edge28" class="edge">
<title>rzs&#45;&#45;lsr</title>
<path fill="none" stroke="black" d="M233.24,-87.41C233.43,-87.47 233.63,-87.54 233.82,-87.6"/>
</g>
<!-- rzs&#45;&#45;cmg -->
<g id="edge29" class="edge">
<title>rzs&#45;&#45;cmg</title>
<path fill="none" stroke="black" d="M182.64,-74.68C172.13,-72.77 160.03,-70.56 149.5,-68.65"/>
</g>
<!-- rzs&#45;&#45;qnr -->
<g id="edge30" class="edge">
<title>rzs&#45;&#45;qnr</title>
<path fill="none" stroke="black" d="M197.69,-62.65C191.97,-53.98 185.01,-43.43 179.29,-34.77"/>
</g>
</g>
</svg>
